<svg width="200" height="200" viewBox="0 0 200 200" fill="none" xmlns="http://www.w3.org/2000/svg">
  <path d="M42 25H35C29.4772 25 25 29.4772 25 35V42" stroke="currentColor" stroke-width="8" stroke-linecap="round"/>
  <path d="M158 25H165C170.523 25 175 29.4772 175 35V42" stroke="currentColor" stroke-width="8" stroke-linecap="round"/>
  <path d="M25 158V165C25 170.523 29.4772 175 35 175H42" stroke="currentColor" stroke-width="8" stroke-linecap="round"/>
  <path d="M175 158V165C175 170.523 170.523 175 165 175H158" stroke="currentColor" stroke-width="8" stroke-linecap="round"/>

  <rect x="62" y="42" width="76" height="116" rx="10" stroke="currentColor" stroke-width="8"/>

  <circle cx="100" cy="62" r="3" fill="currentColor"/>
  <circle cx="93" cy="69" r="3.5" fill="currentColor"/>
  <circle cx="100" cy="69" r="3.5" fill="currentColor"/>
  <circle cx="107" cy="69" r="3.5" fill="currentColor"/>
  <circle cx="96.5" cy="76" r="3.5" fill="currentColor"/>
  <circle cx="103.5" cy="76" r="3.5" fill="currentColor"/>
  <circle cx="100" cy="83" r="3.5" fill="currentColor"/>

  <line x1="82" y1="102" x2="118" y2="102" stroke="currentColor" stroke-width="7" stroke-linecap="round"/>
  <line x1="82" y1="120" x2="118" y2="120" stroke="currentColor" stroke-width="7" stroke-linecap="round"/>
  <line x1="82" y1="138" x2="118" y2="138" stroke="currentColor" stroke-width="7" stroke-linecap="round"/>
</svg>
